<svg width="54" height="22" viewBox="0 0 54 22" fill="none" xmlns="http://www.w3.org/2000/svg">
<path d="M17.7735 8.86414C18.661 8.88563 19.5686 8.9409 20.1055 9.01941L20.1045 9.02039C20.3519 9.05599 20.5039 9.06789 20.6514 9.08582C20.7801 9.10145 20.9437 9.12376 21.1016 9.203C21.2683 9.2867 21.3823 9.40894 21.4756 9.52136C21.5624 9.6259 21.6829 9.78807 21.8262 9.97156C22.1641 10.4036 22.6469 11.1765 23.0869 11.9413C23.5282 12.7082 23.9503 13.5094 24.1602 14.0067L24.3848 14.5038C24.437 14.6195 24.5032 14.7724 24.5157 14.9501C24.5289 15.1392 24.4786 15.3008 24.4278 15.4354L24.2129 15.953C24.0063 16.4527 23.5752 17.2389 23.1299 17.9823C22.6833 18.7278 22.1968 19.4739 21.8672 19.8934L21.8662 19.8925C21.7159 20.0844 21.6333 20.207 21.5459 20.3241C21.4703 20.4254 21.3688 20.5574 21.2178 20.6542C21.059 20.7558 20.8927 20.7894 20.75 20.8104C20.6168 20.83 20.4156 20.8488 20.1856 20.8759C19.6423 20.9398 18.7282 20.9507 17.8428 20.9296C17.177 20.9136 16.5 20.8786 15.9766 20.829L15.5108 20.7753C15.2635 20.7394 15.1124 20.726 14.9649 20.7079C14.8362 20.6921 14.6726 20.6693 14.5147 20.5897C14.3483 20.5058 14.2348 20.3837 14.1416 20.2714C14.0551 20.167 13.9345 20.0047 13.791 19.8212C13.4531 19.3891 12.9703 18.6162 12.5303 17.8514C12.0891 17.0844 11.6663 16.2834 11.4561 15.787C11.3598 15.5596 11.2929 15.4238 11.2325 15.2899C11.1802 15.1742 11.1131 15.0214 11.1006 14.8436C11.0874 14.6543 11.1386 14.4928 11.1895 14.3583C11.2365 14.2339 11.3169 14.0511 11.4034 13.8417C11.61 13.3421 12.0413 12.5559 12.4864 11.8124C12.9327 11.0668 13.4186 10.3203 13.7481 9.90027H13.7491C13.8995 9.70871 13.9841 9.5873 14.0713 9.47058C14.1469 9.36948 14.2477 9.23719 14.3985 9.1405C14.5571 9.03889 14.7235 9.00542 14.8662 8.98425C14.9996 8.96449 15.2004 8.94515 15.4307 8.91785H15.4317C15.975 8.85392 16.8884 8.84271 17.7735 8.86414Z" fill="#FF8E29" stroke="black"/>
<path d="M8.48242 6.51172C9.55759 6.53746 10.6527 6.60382 11.2969 6.69727H11.2979C11.5985 6.74136 11.7873 6.75861 11.9619 6.78027C12.1178 6.79962 12.2989 6.82601 12.4717 6.91309C12.653 7.00458 12.7792 7.13846 12.8896 7.27148C12.9937 7.39674 13.1357 7.58824 13.3125 7.81445C13.7174 8.33193 14.2998 9.26292 14.833 10.1895C15.3675 11.1182 15.8766 12.0847 16.1289 12.6807H16.1299C16.2469 12.9578 16.3298 13.1272 16.4014 13.2861C16.4648 13.4269 16.5381 13.5967 16.5518 13.791C16.5662 13.997 16.5115 14.1754 16.4512 14.335C16.3947 14.4845 16.2994 14.7001 16.1924 14.959C15.9453 15.5565 15.4259 16.5034 14.8867 17.4043C14.3462 18.3073 13.7594 19.2077 13.3643 19.7109C13.1807 19.9449 13.0754 20.0965 12.9717 20.2354C12.8798 20.3583 12.7667 20.5037 12.6016 20.6094C12.4288 20.7199 12.2465 20.7582 12.0771 20.7832C11.9172 20.8069 11.6794 20.8297 11.3955 20.8633C10.7446 20.9403 9.64383 20.9535 8.57129 20.9277C7.49623 20.9019 6.40122 20.8352 5.75684 20.7412C5.45637 20.6974 5.26709 20.6805 5.09277 20.6592C4.93693 20.6401 4.75516 20.6143 4.58203 20.5273C4.40007 20.4359 4.27377 20.3013 4.16309 20.168C4.05895 20.0425 3.91701 19.8514 3.74023 19.625C3.33575 19.1079 2.75298 18.1768 2.21973 17.25C1.68525 16.321 1.1766 15.3544 0.924805 14.7588H0.923828C0.806667 14.4812 0.723928 14.3115 0.652344 14.1523C0.588929 14.0114 0.515429 13.8418 0.501953 13.6475C0.487705 13.4417 0.542389 13.2638 0.602539 13.1045C0.658903 12.9553 0.754531 12.7393 0.861328 12.4805L0.966797 12.2402C1.23908 11.646 1.69518 10.8225 2.16699 10.0342C2.70757 9.13101 3.29444 8.23105 3.68945 7.72754L4.08203 7.2041C4.17392 7.08135 4.28712 6.93572 4.45215 6.83008C4.62486 6.71957 4.80731 6.68129 4.97656 6.65625C5.13648 6.63261 5.37426 6.61073 5.6582 6.57715C6.30913 6.50017 7.40986 6.48605 8.48242 6.51172Z" fill="#FF8E29" stroke="black"/>
<path d="M15.1652 11.4922L17.8889 11.9512L17.924 11.958L17.9582 11.9688C19.2705 12.3928 20.2598 13.727 20.0588 15.21H20.0578C19.8689 16.5887 18.6711 17.6848 17.3166 17.707L17.2932 17.708L17.2697 17.7061C16.779 17.6673 16.2888 17.6221 15.8029 17.5771C15.3159 17.5321 14.8323 17.4874 14.3498 17.4492L13.4767 17.3799L13.9797 16.6631C14.5447 15.8585 15.1738 14.9943 15.4621 13.9834L15.466 13.9697L15.4709 13.9561C15.4696 13.9597 15.4831 13.9161 15.4572 13.7939C15.4326 13.6781 15.381 13.5314 15.3019 13.3584C15.1436 13.0122 14.9047 12.6228 14.6652 12.2617L14.0266 11.2988L15.1652 11.4922Z" fill="white" stroke="black"/>
<mask id="mask0_2001_621" style="mask-type:alpha" maskUnits="userSpaceOnUse" x="11" y="9" width="14" height="12">
<path fill-rule="evenodd" clip-rule="evenodd" d="M21.4318 10.2793C22.0608 11.0833 23.3048 13.2653 23.6998 14.2013C24.0958 15.1363 24.1328 14.8363 23.7508 15.7623C23.3678 16.6883 22.0928 18.7964 21.4738 19.5844C20.8558 20.3734 21.1378 20.2603 20.1268 20.3793C19.1158 20.4983 16.5948 20.4283 15.5828 20.2803C14.5698 20.1333 14.8138 20.3183 14.1848 19.5133C13.5558 18.7093 12.3128 16.5273 11.9168 15.5923C11.5208 14.6573 11.4838 14.9574 11.8658 14.0324C12.2488 13.1064 13.5228 10.9984 14.1418 10.2094C14.7608 9.42135 14.4778 9.53434 15.4898 9.41434C16.5008 9.29534 19.0209 9.36634 20.0329 9.51434C21.0469 9.66034 20.8038 9.47533 21.4318 10.2793Z" fill="#FF8E29"/>
</mask>
<g mask="url(#mask0_2001_621)">
<path fill-rule="evenodd" clip-rule="evenodd" d="M21.4318 10.2793C22.0608 11.0833 23.3048 13.2653 23.6998 14.2013C24.0958 15.1363 24.1328 14.8363 23.7508 15.7623C23.3678 16.6883 22.0928 18.7964 21.4738 19.5844C20.8558 20.3734 21.1378 20.2603 20.1268 20.3793C19.1158 20.4983 16.5948 20.4283 15.5828 20.2803C14.5698 20.1333 14.8138 20.3183 14.1848 19.5133C13.5558 18.7093 12.3128 16.5273 11.9168 15.5923C11.5208 14.6573 11.4838 14.9574 11.8658 14.0324C12.2488 13.1064 13.5228 10.9984 14.1418 10.2094C14.7608 9.42135 14.4778 9.53434 15.4898 9.41434C16.5008 9.29534 19.0209 9.36634 20.0329 9.51434C21.0469 9.66034 20.8038 9.47533 21.4318 10.2793Z" fill="#FF8E29"/>
<g opacity="0.25" style="mix-blend-mode:multiply">
<ellipse cx="15.5" cy="15" rx="5.5" ry="6" fill="#6C523B"/>
</g>
</g>
<path fill-rule="evenodd" clip-rule="evenodd" d="M12.9189 8.12233C13.6819 9.09733 15.1889 11.7413 15.6689 12.8753C16.1479 14.0093 16.1939 13.6463 15.7299 14.7683C15.2659 15.8903 13.7209 18.4473 12.9709 19.4023C12.2209 20.3583 12.5629 20.2213 11.3369 20.3663C10.1109 20.5113 7.05587 20.4253 5.82887 20.2463C4.60087 20.0673 4.89587 20.2933 4.13387 19.3173C3.37187 18.3433 1.86387 15.6973 1.38487 14.5643C0.905869 13.4293 0.860864 13.7933 1.32386 12.6713C1.78786 11.5483 3.33287 8.99233 4.08287 8.03633C4.83387 7.08133 4.49086 7.21832 5.71686 7.07332C6.94286 6.92832 9.99787 7.01431 11.2249 7.19231C12.4519 7.37231 12.1569 7.14733 12.9189 8.12233Z" fill="#FF8E29"/>
<mask id="mask1_2001_621" style="mask-type:alpha" maskUnits="userSpaceOnUse" x="14" y="11" width="6" height="7">
<path fill-rule="evenodd" clip-rule="evenodd" d="M15.0819 11.9854C15.5679 12.7184 16.1079 13.6464 15.9429 14.1204C15.6269 15.2284 14.9409 16.1644 14.3889 16.9504C15.3619 17.0274 16.3349 17.1304 17.3089 17.2074C18.4049 17.1894 19.4059 16.2884 19.5629 15.1424C19.7279 13.9254 18.9129 12.8024 17.8049 12.4444C16.9049 12.2904 15.9819 12.1384 15.0819 11.9854Z" fill="white"/>
</mask>
<g mask="url(#mask1_2001_621)">
<path fill-rule="evenodd" clip-rule="evenodd" d="M15.0819 11.9854C15.5679 12.7184 16.1079 13.6464 15.9429 14.1204C15.6269 15.2284 14.9409 16.1644 14.3889 16.9504C15.3619 17.0274 16.3349 17.1304 17.3089 17.2074C18.4049 17.1894 19.4059 16.2884 19.5629 15.1424C19.7279 13.9254 18.9129 12.8024 17.8049 12.4444C16.9049 12.2904 15.9819 12.1384 15.0819 11.9854Z" fill="white"/>
<g opacity="0.34" style="mix-blend-mode:multiply">
<ellipse cx="14" cy="14.5" rx="3" ry="3.5" fill="#454545"/>
</g>
</g>
<mask id="mask2_2001_621" style="mask-type:alpha" maskUnits="userSpaceOnUse" x="11" y="9" width="14" height="12">
<path fill-rule="evenodd" clip-rule="evenodd" d="M21.4318 10.2793C22.0608 11.0833 23.3048 13.2653 23.6998 14.2013C24.0958 15.1363 24.1328 14.8363 23.7508 15.7623C23.3678 16.6883 22.0928 18.7964 21.4738 19.5844C20.8558 20.3734 21.1378 20.2603 20.1268 20.3793C19.1158 20.4983 16.5948 20.4283 15.5828 20.2803C14.5698 20.1333 14.8138 20.3183 14.1848 19.5133C13.5558 18.7093 12.3128 16.5273 11.9168 15.5923C11.5208 14.6573 11.4838 14.9574 11.8658 14.0324C12.2488 13.1064 13.5228 10.9984 14.1418 10.2094C14.7608 9.42135 14.4778 9.53434 15.4898 9.41434C16.5008 9.29534 19.0209 9.36634 20.0329 9.51434C21.0469 9.66034 20.8038 9.47533 21.4318 10.2793Z" fill="#FF8E29"/>
</mask>
<g mask="url(#mask2_2001_621)">
<path fill-rule="evenodd" clip-rule="evenodd" d="M21.4318 10.2793C22.0608 11.0833 23.3048 13.2653 23.6998 14.2013C24.0958 15.1363 24.1328 14.8363 23.7508 15.7623C23.3678 16.6883 22.0928 18.7964 21.4738 19.5844C20.8558 20.3734 21.1378 20.2603 20.1268 20.3793C19.1158 20.4983 16.5948 20.4283 15.5828 20.2803C14.5698 20.1333 14.8138 20.3183 14.1848 19.5133C13.5558 18.7093 12.3128 16.5273 11.9168 15.5923C11.5208 14.6573 11.4838 14.9574 11.8658 14.0324C12.2488 13.1064 13.5228 10.9984 14.1418 10.2094C14.7608 9.42135 14.4778 9.53434 15.4898 9.41434C16.5008 9.29534 19.0209 9.36634 20.0329 9.51434C21.0469 9.66034 20.8038 9.47533 21.4318 10.2793Z" fill="#FF8E29"/>
<g opacity="0.25" style="mix-blend-mode:multiply">
<ellipse cx="15.5" cy="15" rx="5.5" ry="6" fill="#6C523B"/>
</g>
</g>
<path fill-rule="evenodd" clip-rule="evenodd" d="M12.9189 8.12233C13.6819 9.09733 15.1889 11.7413 15.6689 12.8753C16.1479 14.0093 16.1939 13.6463 15.7299 14.7683C15.2659 15.8903 13.7209 18.4473 12.9709 19.4023C12.2209 20.3583 12.5629 20.2213 11.3369 20.3663C10.1109 20.5113 7.05587 20.4253 5.82887 20.2463C4.60087 20.0673 4.89587 20.2933 4.13387 19.3173C3.37187 18.3433 1.86387 15.6973 1.38487 14.5643C0.905869 13.4293 0.860864 13.7933 1.32386 12.6713C1.78786 11.5483 3.33287 8.99233 4.08287 8.03633C4.83387 7.08133 4.49086 7.21832 5.71686 7.07332C6.94286 6.92832 9.99787 7.01431 11.2249 7.19231C12.4519 7.37231 12.1569 7.14733 12.9189 8.12233Z" fill="#FF8E29"/>
<mask id="mask3_2001_621" style="mask-type:alpha" maskUnits="userSpaceOnUse" x="14" y="11" width="6" height="7">
<path fill-rule="evenodd" clip-rule="evenodd" d="M15.0819 11.9854C15.5679 12.7184 16.1079 13.6464 15.9429 14.1204C15.6269 15.2284 14.9409 16.1644 14.3889 16.9504C15.3619 17.0274 16.3349 17.1304 17.3089 17.2074C18.4049 17.1894 19.4059 16.2884 19.5629 15.1424C19.7279 13.9254 18.9129 12.8024 17.8049 12.4444C16.9049 12.2904 15.9819 12.1384 15.0819 11.9854Z" fill="white"/>
</mask>
<g mask="url(#mask3_2001_621)">
<path fill-rule="evenodd" clip-rule="evenodd" d="M15.0819 11.9854C15.5679 12.7184 16.1079 13.6464 15.9429 14.1204C15.6269 15.2284 14.9409 16.1644 14.3889 16.9504C15.3619 17.0274 16.3349 17.1304 17.3089 17.2074C18.4049 17.1894 19.4059 16.2884 19.5629 15.1424C19.7279 13.9254 18.9129 12.8024 17.8049 12.4444C16.9049 12.2904 15.9819 12.1384 15.0819 11.9854Z" fill="white"/>
<g opacity="0.34" style="mix-blend-mode:multiply">
<ellipse cx="14" cy="14.5" rx="3" ry="3.5" fill="#454545"/>
</g>
</g>
<path d="M8.16188 9.24036C9.35288 9.24036 10.4319 9.72336 11.2129 10.5044C11.9939 11.2854 12.4769 12.3644 12.4769 13.5564C12.4769 14.7474 11.9939 15.8274 11.2129 16.6084C10.4319 17.3894 9.35288 17.8724 8.16188 17.8724C6.96988 17.8724 5.89088 17.3894 5.10988 16.6084C4.32888 15.8274 3.84488 14.7484 3.84488 13.5564C3.84488 12.3654 4.32788 11.2864 5.10988 10.5044C5.89088 9.72336 6.97088 9.24036 8.16188 9.24036ZM10.7989 10.9174C10.1239 10.2424 9.19188 9.82538 8.16188 9.82538C7.13188 9.82538 6.19888 10.2424 5.52388 10.9174C4.84888 11.5934 4.43088 12.5254 4.43088 13.5554C4.43088 14.5854 4.84888 15.5184 5.52388 16.1934C6.19888 16.8694 7.13088 17.2864 8.16188 17.2864C9.19188 17.2864 10.1239 16.8694 10.7989 16.1934C11.4739 15.5184 11.8919 14.5864 11.8919 13.5554C11.8919 12.5264 11.4739 11.5934 10.7989 10.9174Z" fill="white"/>
<path d="M9.37187 16.3123H7.32487H7.11887V16.1073V15.6823V15.4763H7.32487H7.91987V12.1883L7.57987 12.4853L7.23887 12.7833V12.3303V11.8133V11.7213L7.30987 11.6603L8.15287 10.9223L8.21187 10.8713H8.28787H8.63587H8.84087V11.0773V15.4763H9.37187H9.57787V15.6823V16.1073V16.3123H9.37187Z" fill="white"/>
<mask id="mask4_2001_621" style="mask-type:alpha" maskUnits="userSpaceOnUse" x="0" y="7" width="24" height="14">
<mask id="mask5_2001_621" style="mask-type:alpha" maskUnits="userSpaceOnUse" x="10" y="9" width="14" height="12">
<path fill-rule="evenodd" clip-rule="evenodd" d="M20.4318 10.2793C21.0608 11.0833 22.3048 13.2653 22.6998 14.2013C23.0958 15.1363 23.1328 14.8363 22.7508 15.7623C22.3678 16.6883 21.0928 18.7964 20.4738 19.5844C19.8558 20.3734 20.1378 20.2603 19.1268 20.3793C18.1158 20.4983 15.5948 20.4283 14.5828 20.2803C13.5698 20.1333 13.8138 20.3183 13.1848 19.5133C12.5558 18.7093 11.3128 16.5273 10.9168 15.5923C10.5208 14.6573 10.4838 14.9574 10.8658 14.0324C11.2488 13.1064 12.5228 10.9984 13.1418 10.2094C13.7608 9.42135 13.4778 9.53434 14.4898 9.41434C15.5008 9.29534 18.0209 9.36634 19.0329 9.51434C20.0469 9.66034 19.8038 9.47533 20.4318 10.2793Z" fill="#FF8E29"/>
</mask>
<g mask="url(#mask5_2001_621)">
<path fill-rule="evenodd" clip-rule="evenodd" d="M20.4318 10.2793C21.0608 11.0833 22.3048 13.2653 22.6998 14.2013C23.0958 15.1363 23.1328 14.8363 22.7508 15.7623C22.3678 16.6883 21.0928 18.7964 20.4738 19.5844C19.8558 20.3734 20.1378 20.2603 19.1268 20.3793C18.1158 20.4983 15.5948 20.4283 14.5828 20.2803C13.5698 20.1333 13.8138 20.3183 13.1848 19.5133C12.5558 18.7093 11.3128 16.5273 10.9168 15.5923C10.5208 14.6573 10.4838 14.9574 10.8658 14.0324C11.2488 13.1064 12.5228 10.9984 13.1418 10.2094C13.7608 9.42135 13.4778 9.53434 14.4898 9.41434C15.5008 9.29534 18.0209 9.36634 19.0329 9.51434C20.0469 9.66034 19.8038 9.47533 20.4318 10.2793Z" fill="#FF8E29"/>
<g opacity="0.25" style="mix-blend-mode:multiply">
<ellipse cx="14.5" cy="15" rx="5.5" ry="6" fill="#6C523B"/>
</g>
</g>
<path fill-rule="evenodd" clip-rule="evenodd" d="M11.9189 8.12233C12.6819 9.09733 14.1889 11.7413 14.6689 12.8753C15.1479 14.0093 15.1939 13.6463 14.7299 14.7683C14.2659 15.8903 12.7209 18.4473 11.9709 19.4023C11.2209 20.3583 11.5629 20.2213 10.3369 20.3663C9.11087 20.5113 6.05587 20.4253 4.82887 20.2463C3.60087 20.0673 3.89587 20.2933 3.13387 19.3173C2.37187 18.3433 0.863869 15.6973 0.384869 14.5643C-0.0941309 13.4293 -0.139136 13.7933 0.323864 12.6713C0.787864 11.5483 2.33287 8.99233 3.08287 8.03633C3.83387 7.08133 3.49086 7.21832 4.71686 7.07332C5.94286 6.92832 8.99787 7.01431 10.2249 7.19231C11.4519 7.37231 11.1569 7.14733 11.9189 8.12233Z" fill="#FF8E29"/>
<mask id="mask6_2001_621" style="mask-type:alpha" maskUnits="userSpaceOnUse" x="13" y="11" width="6" height="7">
<path fill-rule="evenodd" clip-rule="evenodd" d="M14.0819 11.9854C14.5679 12.7184 15.1079 13.6464 14.9429 14.1204C14.6269 15.2284 13.9409 16.1644 13.3889 16.9504C14.3619 17.0274 15.3349 17.1304 16.3089 17.2074C17.4049 17.1894 18.4059 16.2884 18.5629 15.1424C18.7279 13.9254 17.9129 12.8024 16.8049 12.4444C15.9049 12.2904 14.9819 12.1384 14.0819 11.9854Z" fill="white"/>
</mask>
<g mask="url(#mask6_2001_621)">
<path fill-rule="evenodd" clip-rule="evenodd" d="M14.0819 11.9854C14.5679 12.7184 15.1079 13.6464 14.9429 14.1204C14.6269 15.2284 13.9409 16.1644 13.3889 16.9504C14.3619 17.0274 15.3349 17.1304 16.3089 17.2074C17.4049 17.1894 18.4059 16.2884 18.5629 15.1424C18.7279 13.9254 17.9129 12.8024 16.8049 12.4444C15.9049 12.2904 14.9819 12.1384 14.0819 11.9854Z" fill="white"/>
<g opacity="0.34" style="mix-blend-mode:multiply">
<ellipse cx="13" cy="14.5" rx="3" ry="3.5" fill="#454545"/>
</g>
</g>
<path d="M7.16188 9.24036C8.35288 9.24036 9.43188 9.72336 10.2129 10.5044C10.9939 11.2854 11.4769 12.3644 11.4769 13.5564C11.4769 14.7474 10.9939 15.8274 10.2129 16.6084C9.43188 17.3894 8.35288 17.8724 7.16188 17.8724C5.96988 17.8724 4.89088 17.3894 4.10988 16.6084C3.32888 15.8274 2.84488 14.7484 2.84488 13.5564C2.84488 12.3654 3.32788 11.2864 4.10988 10.5044C4.89088 9.72336 5.97088 9.24036 7.16188 9.24036ZM9.79887 10.9174C9.12387 10.2424 8.19188 9.82538 7.16188 9.82538C6.13188 9.82538 5.19888 10.2424 4.52388 10.9174C3.84888 11.5934 3.43088 12.5254 3.43088 13.5554C3.43088 14.5854 3.84888 15.5184 4.52388 16.1934C5.19888 16.8694 6.13088 17.2864 7.16188 17.2864C8.19188 17.2864 9.12387 16.8694 9.79887 16.1934C10.4739 15.5184 10.8919 14.5864 10.8919 13.5554C10.8919 12.5264 10.4739 11.5934 9.79887 10.9174Z" fill="white"/>
<path d="M8.37187 16.3123H6.32487H6.11887V16.1073V15.6823V15.4763H6.32487H6.91987V12.1883L6.57987 12.4853L6.23887 12.7833V12.3303V11.8133V11.7213L6.30987 11.6603L7.15287 10.9223L7.21187 10.8713H7.28787H7.63587H7.84087V11.0773V15.4763H8.37187H8.57787V15.6823V16.1073V16.3123H8.37187Z" fill="white"/>
</mask>
<g mask="url(#mask4_2001_621)">
<g style="mix-blend-mode:multiply" opacity="0.25">
<path d="M21.0469 0.517578C22.6326 0.555697 24.2385 0.653561 25.1758 0.790039L25.1748 0.791016C25.6221 0.855905 25.9125 0.880582 26.1621 0.911133C26.3927 0.939361 26.6222 0.97421 26.8369 1.08203C27.0605 1.19444 27.2222 1.36192 27.3799 1.55176C27.531 1.73361 27.7324 2.00537 28 2.34766V2.34863C28.5858 3.09851 29.4392 4.46181 30.2266 5.83008C31.0149 7.20012 31.7616 8.6168 32.1279 9.4834L32.3574 10.002C32.424 10.1468 32.4819 10.2683 32.5332 10.3818C32.6276 10.5908 32.7177 10.8066 32.7344 11.0469C32.7519 11.2987 32.6855 11.5221 32.5996 11.749C32.5175 11.9659 32.3822 12.2713 32.2197 12.6641C31.8621 13.5293 31.1036 14.9147 30.3076 16.2441C29.5103 17.5759 28.6496 18.8945 28.0762 19.626C27.8033 19.9738 27.641 20.2065 27.4932 20.4043C27.357 20.5864 27.2125 20.769 27.0088 20.8994C26.7974 21.0348 26.5691 21.0853 26.3271 21.1211L25.3281 21.2373C24.3847 21.3488 22.7736 21.3693 21.1904 21.3311C19.6047 21.2927 17.9988 21.1941 17.0615 21.0576C16.6145 20.9925 16.3246 20.9672 16.0752 20.9365C15.8444 20.9082 15.6141 20.8726 15.3994 20.7646C15.1761 20.6523 15.0151 20.4855 14.8574 20.2959C14.7063 20.1141 14.5042 19.8423 14.2363 19.5C13.6498 18.7504 12.7968 17.3867 12.0098 16.0186C11.2215 14.6484 10.4757 13.2317 10.1094 12.3662H10.1084C9.93411 11.9539 9.80649 11.6938 9.7041 11.4668C9.60985 11.2578 9.51973 11.0419 9.50293 10.8018C9.48532 10.55 9.55085 10.3266 9.63672 10.0996C9.71881 9.88266 9.85498 9.57732 10.0176 9.18457C10.3754 8.31883 11.134 6.93381 11.9297 5.60449C12.7268 4.27279 13.5871 2.95418 14.1611 2.22266L14.499 1.77734C14.5922 1.6508 14.6702 1.54324 14.7441 1.44434C14.8801 1.26245 15.0239 1.07959 15.2275 0.949219C15.4389 0.813948 15.6673 0.763307 15.9092 0.727539C16.1417 0.693161 16.479 0.662157 16.9092 0.611328C17.8527 0.499894 19.4639 0.47953 21.0469 0.517578Z" fill="#6C523B" stroke="#6C523B"/>
<path fill-rule="evenodd" clip-rule="evenodd" d="M27.6064 2.65613C28.7314 4.09613 30.9594 8.00314 31.6674 9.67814C32.3764 11.3521 32.4434 10.8151 31.7574 12.4731C31.0724 14.1301 28.7894 17.9051 27.6824 19.3171C26.5744 20.7291 27.0794 20.5271 25.2694 20.7411C23.4584 20.9551 18.9464 20.8271 17.1334 20.5631C15.3204 20.2991 15.7564 20.6311 14.6304 19.1921C13.5044 17.7531 11.2774 13.8441 10.5694 12.1711C9.86143 10.4961 9.79342 11.0331 10.4794 9.37613C11.1644 7.71813 13.4464 3.94313 14.5544 2.53113C15.6624 1.12013 15.1564 1.32213 16.9674 1.10813C18.7784 0.894129 23.2904 1.02113 25.1034 1.28513C26.9164 1.54813 26.4804 1.21613 27.6064 2.65613Z" fill="#6C523B"/>
<path d="M23.0694 13.1531C23.0694 13.6851 22.9894 14.0781 22.8314 14.3291L22.8264 14.3371C22.7074 14.5151 22.5404 14.6471 22.3244 14.7331C22.1324 14.8091 21.9054 14.8471 21.6454 14.8471H19.3364C19.0144 14.8471 18.7434 14.7761 18.5254 14.6341C18.2954 14.4851 18.1354 14.2661 18.0464 13.9771L18.0434 13.9671C18.0154 13.8621 17.9944 13.6911 17.9824 13.4531C17.9704 13.2211 17.9644 12.9331 17.9644 12.5931V12.2471H18.3094H19.0644H19.4094V12.5931V13.1861C19.4094 13.3621 19.4184 13.4621 19.4364 13.4871L19.4394 13.4901C19.4494 13.5031 19.5254 13.5111 19.6684 13.5111H21.3304C21.4274 13.5111 21.5004 13.5021 21.5494 13.4851C21.5584 13.4821 21.6064 13.4391 21.6104 13.4371C21.6134 13.4231 21.5774 13.4411 21.5824 13.4081C21.5944 13.3311 21.6004 13.2281 21.6004 13.1011V11.1811C21.6004 11.0171 21.5914 10.9191 21.5724 10.8881L21.5714 10.8921C21.5734 10.8971 21.5734 10.9011 21.5694 10.9001C21.5164 10.8861 21.4404 10.8781 21.3414 10.8781H18.6124H18.2674V10.5321V6.88712V6.54211H18.6124H22.6474H22.9924V6.88712V7.53412V7.87912H22.6474H19.6804V9.51913H21.4824C22.0704 9.51913 22.4824 9.64613 22.7204 9.89813C22.8454 10.0321 22.9374 10.2121 22.9934 10.4361C23.0434 10.6321 23.0684 10.8661 23.0684 11.1371L23.0694 13.1531ZM21.5744 10.8861C21.5734 10.8831 21.5724 10.8821 21.5714 10.8801C21.5644 10.8701 21.5704 10.8811 21.5734 10.8901L21.5744 10.8861Z" fill="#6C523B"/>
<path d="M20.5794 4.30713C22.3394 4.30713 23.9324 5.02013 25.0864 6.17413C26.2394 7.32713 26.9534 8.92112 26.9534 10.6811C26.9534 12.4421 26.2394 14.0341 25.0864 15.1881C23.9324 16.3421 22.3394 17.0551 20.5794 17.0551C18.8194 17.0551 17.2264 16.3421 16.0724 15.1881C14.9194 14.0351 14.2054 12.4411 14.2054 10.6811C14.2054 8.92112 14.9194 7.32713 16.0724 6.17413C17.2264 5.02013 18.8194 4.30713 20.5794 4.30713ZM24.4754 6.78513C23.4784 5.78813 22.1014 5.17212 20.5794 5.17212C19.0584 5.17212 17.6804 5.78813 16.6834 6.78513C15.6864 7.78213 15.0694 9.16012 15.0694 10.6811C15.0694 12.2021 15.6864 13.5801 16.6834 14.5771C17.6804 15.5741 19.0574 16.1911 20.5794 16.1911C22.1004 16.1911 23.4774 15.5741 24.4754 14.5771C25.4724 13.5811 26.0894 12.2031 26.0894 10.6811C26.0894 9.16012 25.4724 7.78213 24.4754 6.78513Z" fill="#6C523B"/>
</g>
</g>
<path d="M35.7719 3.98926C37.0807 4.02075 38.4097 4.10136 39.1879 4.21484C39.5556 4.26841 39.7905 4.28972 39.9995 4.31543C40.1897 4.33885 40.3932 4.36919 40.5854 4.46582C40.7863 4.56687 40.9288 4.71588 41.061 4.875C41.1866 5.02631 41.3563 5.25463 41.5746 5.53418L41.767 5.79004C42.238 6.43928 42.85 7.42727 43.4184 8.41504C44.0691 9.54588 44.6864 10.7189 44.9907 11.4385C45.134 11.7777 45.2379 11.9886 45.3237 12.1787C45.4012 12.3507 45.4825 12.5414 45.4975 12.7568C45.5133 12.9838 45.4533 13.1827 45.3813 13.373C45.3131 13.5533 45.1993 13.8099 45.0668 14.1299C44.7692 14.8501 44.1397 15.9976 43.4828 17.0947C42.9071 18.0563 42.2904 19.0123 41.8256 19.6436L41.6362 19.8936C41.4119 20.1797 41.2804 20.3684 41.1567 20.5342C41.0447 20.6842 40.9176 20.8467 40.7348 20.9639C40.5443 21.0859 40.3407 21.1302 40.1381 21.1602C39.9449 21.1888 39.6617 21.2153 39.311 21.2568C38.5263 21.3498 37.1915 21.3666 35.8852 21.335C34.5762 21.3032 33.2474 21.2209 32.4692 21.1074C32.1016 21.0539 31.8662 21.0334 31.6577 21.0078C31.4676 20.9845 31.2639 20.9549 31.0717 20.8584C30.8708 20.7575 30.7283 20.6083 30.5961 20.4492L30.0825 19.79C29.5952 19.1662 28.8891 18.0371 28.2397 16.9082C27.5891 15.7773 26.9707 14.6043 26.6664 13.8848C26.5231 13.5459 26.4202 13.3346 26.3344 13.1445C26.2568 12.9725 26.1757 12.7817 26.1606 12.5664C26.1447 12.3396 26.2039 12.1407 26.2758 11.9502C26.344 11.7697 26.4579 11.5136 26.5903 11.1934C26.8879 10.4732 27.5164 9.3256 28.1733 8.22852C28.8314 7.12929 29.5439 6.03773 30.0209 5.42969C30.2453 5.14395 30.3767 4.95464 30.5004 4.78906C30.6125 4.63914 30.7396 4.47646 30.9223 4.35938C31.1128 4.23731 31.3163 4.19305 31.519 4.16309C31.7121 4.13453 31.9947 4.10966 32.3452 4.06836V4.06738C33.1302 3.97438 34.4655 3.95783 35.7719 3.98926Z" fill="#FF8E29" stroke="black"/>
<path d="M22.0469 0.517578C23.6326 0.555697 25.2385 0.653561 26.1758 0.790039L26.1748 0.791016C26.6221 0.855905 26.9125 0.880582 27.1621 0.911133C27.3927 0.939361 27.6222 0.97421 27.8369 1.08203C28.0605 1.19444 28.2222 1.36192 28.3799 1.55176C28.531 1.73361 28.7324 2.00537 29 2.34766V2.34863C29.5858 3.09851 30.4392 4.46181 31.2266 5.83008C32.0149 7.20012 32.7616 8.6168 33.1279 9.4834L33.3574 10.002C33.424 10.1468 33.4819 10.2683 33.5332 10.3818C33.6276 10.5908 33.7177 10.8066 33.7344 11.0469C33.7519 11.2987 33.6855 11.5221 33.5996 11.749C33.5175 11.9659 33.3822 12.2713 33.2197 12.6641C32.8621 13.5293 32.1036 14.9147 31.3076 16.2441C30.5103 17.5759 29.6496 18.8945 29.0762 19.626C28.8033 19.9738 28.641 20.2065 28.4932 20.4043C28.357 20.5864 28.2125 20.769 28.0088 20.8994C27.7974 21.0348 27.5691 21.0853 27.3271 21.1211L26.3281 21.2373C25.3847 21.3488 23.7736 21.3693 22.1904 21.3311C20.6047 21.2927 18.9988 21.1941 18.0615 21.0576C17.6145 20.9925 17.3246 20.9672 17.0752 20.9365C16.8444 20.9082 16.6141 20.8726 16.3994 20.7646C16.1761 20.6523 16.0151 20.4855 15.8574 20.2959C15.7063 20.1141 15.5042 19.8423 15.2363 19.5C14.6498 18.7504 13.7968 17.3867 13.0098 16.0186C12.2215 14.6484 11.4757 13.2317 11.1094 12.3662H11.1084C10.9341 11.9539 10.8065 11.6938 10.7041 11.4668C10.6098 11.2578 10.5197 11.0419 10.5029 10.8018C10.4853 10.55 10.5509 10.3266 10.6367 10.0996C10.7188 9.88266 10.855 9.57732 11.0176 9.18457C11.3754 8.31883 12.134 6.93381 12.9297 5.60449C13.7268 4.27279 14.5871 2.95418 15.1611 2.22266L15.499 1.77734C15.5922 1.6508 15.6702 1.54324 15.7441 1.44434C15.8801 1.26245 16.0239 1.07959 16.2275 0.949219C16.4389 0.813948 16.6673 0.763307 16.9092 0.727539C17.1417 0.693161 17.479 0.662157 17.9092 0.611328C18.8527 0.499894 20.4639 0.47953 22.0469 0.517578Z" fill="#FF8E29" stroke="black"/>
<path d="M31.8859 7.86792C32.5489 7.98125 33.2214 8.09402 33.8947 8.20679L35.9064 8.54663L35.9425 8.55249L35.9767 8.56323C37.7603 9.13982 39.109 10.9141 38.9357 12.9001L38.9142 13.0925C38.6525 15.0175 36.9749 16.5452 35.0988 16.573H35.0753L35.0519 16.571C34.3293 16.5138 33.6072 16.4478 32.8888 16.3816C32.1694 16.3153 31.4536 16.2488 30.7384 16.1921L29.8654 16.1238L30.3683 15.407C31.1964 14.2274 32.1526 12.9169 32.5929 11.3767L32.5968 11.363L32.6007 11.3503C32.6191 11.2974 32.6317 11.1832 32.589 10.9822C32.5476 10.7876 32.4638 10.554 32.3429 10.2898C32.1011 9.76122 31.7404 9.17416 31.3849 8.63745L30.7462 7.67358L31.8859 7.86792Z" fill="white" stroke="black"/>
<mask id="mask7_2001_621" style="mask-type:alpha" maskUnits="userSpaceOnUse" x="26" y="4" width="19" height="17">
<path fill-rule="evenodd" clip-rule="evenodd" d="M41.1804 5.84209C42.1094 7.02909 43.9464 10.2521 44.5304 11.6331C45.1144 13.0151 45.1704 12.5721 44.6044 13.9391C44.0394 15.3061 42.1564 18.4201 41.2424 19.5851C40.3294 20.7501 40.7464 20.5831 39.2524 20.7601C37.7594 20.9371 34.0364 20.8311 32.5414 20.6131C31.0454 20.3951 31.4054 20.6701 30.4764 19.4821C29.5484 18.2941 27.7114 15.0711 27.1274 13.6901C26.5434 12.3091 26.4874 12.7511 27.0524 11.3841C27.6174 10.0171 29.5004 6.90308 30.4144 5.73808C31.3284 4.57408 30.9114 4.74007 32.4044 4.56407C33.8984 4.38707 37.6204 4.49207 39.1154 4.71007C40.6114 4.92807 40.2524 4.65409 41.1804 5.84209Z" fill="#FF8E29"/>
</mask>
<g mask="url(#mask7_2001_621)">
<path fill-rule="evenodd" clip-rule="evenodd" d="M41.1804 5.84209C42.1094 7.02909 43.9464 10.2521 44.5304 11.6331C45.1144 13.0151 45.1704 12.5721 44.6044 13.9391C44.0394 15.3061 42.1564 18.4201 41.2424 19.5851C40.3294 20.7501 40.7464 20.5831 39.2524 20.7601C37.7594 20.9371 34.0364 20.8311 32.5414 20.6131C31.0454 20.3951 31.4054 20.6701 30.4764 19.4821C29.5484 18.2941 27.7114 15.0711 27.1274 13.6901C26.5434 12.3091 26.4874 12.7511 27.0524 11.3841C27.6174 10.0171 29.5004 6.90308 30.4144 5.73808C31.3284 4.57408 30.9114 4.74007 32.4044 4.56407C33.8984 4.38707 37.6204 4.49207 39.1154 4.71007C40.6114 4.92807 40.2524 4.65409 41.1804 5.84209Z" fill="#FF8E29"/>
<g opacity="0.25" style="mix-blend-mode:multiply">
<ellipse cx="34" cy="12.5" rx="7" ry="8.5" fill="#6C523B"/>
</g>
</g>
<path fill-rule="evenodd" clip-rule="evenodd" d="M28.6064 2.65613C29.7314 4.09613 31.9594 8.00314 32.6674 9.67814C33.3764 11.3521 33.4434 10.8151 32.7574 12.4731C32.0724 14.1301 29.7894 17.9051 28.6824 19.3171C27.5744 20.7291 28.0794 20.5271 26.2694 20.7411C24.4584 20.9551 19.9464 20.8271 18.1334 20.5631C16.3204 20.2991 16.7564 20.6311 15.6304 19.1921C14.5044 17.7531 12.2774 13.8441 11.5694 12.1711C10.8614 10.4961 10.7934 11.0331 11.4794 9.37613C12.1644 7.71813 14.4464 3.94313 15.5544 2.53113C16.6624 1.12013 16.1564 1.32213 17.9674 1.10813C19.7784 0.894129 24.2904 1.02113 26.1034 1.28513C27.9164 1.54813 27.4804 1.21613 28.6064 2.65613Z" fill="#FF8E29"/>
<mask id="mask8_2001_621" style="mask-type:alpha" maskUnits="userSpaceOnUse" x="30" y="8" width="9" height="9">
<path fill-rule="evenodd" clip-rule="evenodd" d="M31.8015 8.36108C32.5195 9.44508 33.3165 10.8141 33.0735 11.5141C32.6055 13.1511 31.5925 14.5331 30.7775 15.6941C32.2155 15.8081 33.6535 15.9591 35.0915 16.0731C36.7085 16.0491 38.1885 14.7171 38.4185 13.0251C38.6635 11.2281 37.4595 9.56809 35.8225 9.03909C34.4935 8.81209 33.1295 8.58808 31.8015 8.36108Z" fill="white"/>
</mask>
<g mask="url(#mask8_2001_621)">
<path fill-rule="evenodd" clip-rule="evenodd" d="M31.8015 8.36108C32.5195 9.44508 33.3165 10.8141 33.0735 11.5141C32.6055 13.1511 31.5925 14.5331 30.7775 15.6941C32.2155 15.8081 33.6535 15.9591 35.0915 16.0731C36.7085 16.0491 38.1885 14.7171 38.4185 13.0251C38.6635 11.2281 37.4595 9.56809 35.8225 9.03909C34.4935 8.81209 33.1295 8.58808 31.8015 8.36108Z" fill="white"/>
<g opacity="0.34" style="mix-blend-mode:multiply">
<ellipse cx="29" cy="11.5" rx="6" ry="5.5" fill="#454545"/>
</g>
</g>
<path d="M24.0694 13.1531C24.0694 13.6851 23.9894 14.0781 23.8314 14.3291L23.8264 14.3371C23.7074 14.5151 23.5404 14.6471 23.3244 14.7331C23.1324 14.8091 22.9054 14.8471 22.6454 14.8471H20.3364C20.0144 14.8471 19.7434 14.7761 19.5254 14.6341C19.2954 14.4851 19.1354 14.2661 19.0464 13.9771L19.0434 13.9671C19.0154 13.8621 18.9944 13.6911 18.9824 13.4531C18.9704 13.2211 18.9644 12.9331 18.9644 12.5931V12.2471H19.3094H20.0644H20.4094V12.5931V13.1861C20.4094 13.3621 20.4184 13.4621 20.4364 13.4871L20.4394 13.4901C20.4494 13.5031 20.5254 13.5111 20.6684 13.5111H22.3304C22.4274 13.5111 22.5004 13.5021 22.5494 13.4851C22.5584 13.4821 22.6064 13.4391 22.6104 13.4371C22.6134 13.4231 22.5774 13.4411 22.5824 13.4081C22.5944 13.3311 22.6004 13.2281 22.6004 13.1011V11.1811C22.6004 11.0171 22.5914 10.9191 22.5724 10.8881L22.5714 10.8921C22.5734 10.8971 22.5734 10.9011 22.5694 10.9001C22.5164 10.8861 22.4404 10.8781 22.3414 10.8781H19.6124H19.2674V10.5321V6.88712V6.54211H19.6124H23.6474H23.9924V6.88712V7.53412V7.87912H23.6474H20.6804V9.51913H22.4824C23.0704 9.51913 23.4824 9.64613 23.7204 9.89813C23.8454 10.0321 23.9374 10.2121 23.9934 10.4361C24.0434 10.6321 24.0684 10.8661 24.0684 11.1371L24.0694 13.1531ZM22.5744 10.8861C22.5734 10.8831 22.5724 10.8821 22.5714 10.8801C22.5644 10.8701 22.5704 10.8811 22.5734 10.8901L22.5744 10.8861Z" fill="white"/>
<path d="M21.5794 4.30713C23.3394 4.30713 24.9324 5.02013 26.0864 6.17413C27.2394 7.32713 27.9534 8.92112 27.9534 10.6811C27.9534 12.4421 27.2394 14.0341 26.0864 15.1881C24.9324 16.3421 23.3394 17.0551 21.5794 17.0551C19.8194 17.0551 18.2264 16.3421 17.0724 15.1881C15.9194 14.0351 15.2054 12.4411 15.2054 10.6811C15.2054 8.92112 15.9194 7.32713 17.0724 6.17413C18.2264 5.02013 19.8194 4.30713 21.5794 4.30713ZM25.4754 6.78513C24.4784 5.78813 23.1014 5.17212 21.5794 5.17212C20.0584 5.17212 18.6804 5.78813 17.6834 6.78513C16.6864 7.78213 16.0694 9.16012 16.0694 10.6811C16.0694 12.2021 16.6864 13.5801 17.6834 14.5771C18.6804 15.5741 20.0574 16.1911 21.5794 16.1911C23.1004 16.1911 24.4774 15.5741 25.4754 14.5771C26.4724 13.5811 27.0894 12.2031 27.0894 10.6811C27.0894 9.16012 26.4724 7.78213 25.4754 6.78513Z" fill="white"/>
<mask id="mask9_2001_621" style="mask-type:alpha" maskUnits="userSpaceOnUse" x="11" y="1" width="34" height="20">
<g style="mix-blend-mode:multiply" opacity="0.25">
<mask id="mask10_2001_621" style="mask-type:alpha" maskUnits="userSpaceOnUse" x="26" y="4" width="19" height="17">
<path fill-rule="evenodd" clip-rule="evenodd" d="M41.1804 5.84209C42.1094 7.02909 43.9464 10.2521 44.5304 11.6331C45.1144 13.0151 45.1704 12.5721 44.6044 13.9391C44.0394 15.3061 42.1564 18.4201 41.2424 19.5851C40.3294 20.7501 40.7464 20.5831 39.2524 20.7601C37.7594 20.9371 34.0364 20.8311 32.5414 20.6131C31.0454 20.3951 31.4054 20.6701 30.4764 19.4821C29.5484 18.2941 27.7114 15.0711 27.1274 13.6901C26.5434 12.3091 26.4874 12.7511 27.0524 11.3841C27.6174 10.0171 29.5004 6.90308 30.4144 5.73808C31.3284 4.57408 30.9114 4.74007 32.4044 4.56407C33.8984 4.38707 37.6204 4.49207 39.1154 4.71007C40.6114 4.92807 40.2524 4.65409 41.1804 5.84209Z" fill="#FF8E29"/>
</mask>
<g mask="url(#mask10_2001_621)">
<path fill-rule="evenodd" clip-rule="evenodd" d="M41.1804 5.84209C42.1094 7.02909 43.9464 10.2521 44.5304 11.6331C45.1144 13.0151 45.1704 12.5721 44.6044 13.9391C44.0394 15.3061 42.1564 18.4201 41.2424 19.5851C40.3294 20.7501 40.7464 20.5831 39.2524 20.7601C37.7594 20.9371 34.0364 20.8311 32.5414 20.6131C31.0454 20.3951 31.4054 20.6701 30.4764 19.4821C29.5484 18.2941 27.7114 15.0711 27.1274 13.6901C26.5434 12.3091 26.4874 12.7511 27.0524 11.3841C27.6174 10.0171 29.5004 6.90308 30.4144 5.73808C31.3284 4.57408 30.9114 4.74007 32.4044 4.56407C33.8984 4.38707 37.6204 4.49207 39.1154 4.71007C40.6114 4.92807 40.2524 4.65409 41.1804 5.84209Z" fill="#FF8E29"/>
<g opacity="0.25" style="mix-blend-mode:multiply">
<ellipse cx="34" cy="12.5" rx="7" ry="8.5" fill="#6C523B"/>
</g>
</g>
<path fill-rule="evenodd" clip-rule="evenodd" d="M28.6064 2.65613C29.7314 4.09613 31.9594 8.00314 32.6674 9.67814C33.3764 11.3521 33.4434 10.8151 32.7574 12.4731C32.0724 14.1301 29.7894 17.9051 28.6824 19.3171C27.5744 20.7291 28.0794 20.5271 26.2694 20.7411C24.4584 20.9551 19.9464 20.8271 18.1334 20.5631C16.3204 20.2991 16.7564 20.6311 15.6304 19.1921C14.5044 17.7531 12.2774 13.8441 11.5694 12.1711C10.8614 10.4961 10.7934 11.0331 11.4794 9.37613C12.1644 7.71813 14.4464 3.94313 15.5544 2.53113C16.6624 1.12013 16.1564 1.32213 17.9674 1.10813C19.7784 0.894129 24.2904 1.02113 26.1034 1.28513C27.9164 1.54813 27.4804 1.21613 28.6064 2.65613Z" fill="#FF8E29"/>
<mask id="mask11_2001_621" style="mask-type:alpha" maskUnits="userSpaceOnUse" x="30" y="8" width="9" height="9">
<path fill-rule="evenodd" clip-rule="evenodd" d="M31.8015 8.36108C32.5195 9.44508 33.3165 10.8141 33.0735 11.5141C32.6055 13.1511 31.5925 14.5331 30.7775 15.6941C32.2155 15.8081 33.6535 15.9591 35.0915 16.0731C36.7085 16.0491 38.1885 14.7171 38.4185 13.0251C38.6635 11.2281 37.4595 9.56809 35.8225 9.03909C34.4935 8.81209 33.1295 8.58808 31.8015 8.36108Z" fill="white"/>
</mask>
<g mask="url(#mask11_2001_621)">
<path fill-rule="evenodd" clip-rule="evenodd" d="M31.8015 8.36108C32.5195 9.44508 33.3165 10.8141 33.0735 11.5141C32.6055 13.1511 31.5925 14.5331 30.7775 15.6941C32.2155 15.8081 33.6535 15.9591 35.0915 16.0731C36.7085 16.0491 38.1885 14.7171 38.4185 13.0251C38.6635 11.2281 37.4595 9.56809 35.8225 9.03909C34.4935 8.81209 33.1295 8.58808 31.8015 8.36108Z" fill="white"/>
<g opacity="0.34" style="mix-blend-mode:multiply">
<ellipse cx="29" cy="11.5" rx="6" ry="5.5" fill="#454545"/>
</g>
</g>
<path d="M24.0694 13.1531C24.0694 13.6851 23.9894 14.0781 23.8314 14.3291L23.8264 14.3371C23.7074 14.5151 23.5404 14.6471 23.3244 14.7331C23.1324 14.8091 22.9054 14.8471 22.6454 14.8471H20.3364C20.0144 14.8471 19.7434 14.7761 19.5254 14.6341C19.2954 14.4851 19.1354 14.2661 19.0464 13.9771L19.0434 13.9671C19.0154 13.8621 18.9944 13.6911 18.9824 13.4531C18.9704 13.2211 18.9644 12.9331 18.9644 12.5931V12.2471H19.3094H20.0644H20.4094V12.5931V13.1861C20.4094 13.3621 20.4184 13.4621 20.4364 13.4871L20.4394 13.4901C20.4494 13.5031 20.5254 13.5111 20.6684 13.5111H22.3304C22.4274 13.5111 22.5004 13.5021 22.5494 13.4851C22.5584 13.4821 22.6064 13.4391 22.6104 13.4371C22.6134 13.4231 22.5774 13.4411 22.5824 13.4081C22.5944 13.3311 22.6004 13.2281 22.6004 13.1011V11.1811C22.6004 11.0171 22.5914 10.9191 22.5724 10.8881L22.5714 10.8921C22.5734 10.8971 22.5734 10.9011 22.5694 10.9001C22.5164 10.8861 22.4404 10.8781 22.3414 10.8781H19.6124H19.2674V10.5321V6.88712V6.54211H19.6124H23.6474H23.9924V6.88712V7.53412V7.87912H23.6474H20.6804V9.51913H22.4824C23.0704 9.51913 23.4824 9.64613 23.7204 9.89813C23.8454 10.0321 23.9374 10.2121 23.9934 10.4361C24.0434 10.6321 24.0684 10.8661 24.0684 11.1371L24.0694 13.1531ZM22.5744 10.8861C22.5734 10.8831 22.5724 10.8821 22.5714 10.8801C22.5644 10.8701 22.5704 10.8811 22.5734 10.8901L22.5744 10.8861Z" fill="white"/>
<path d="M21.5794 4.30713C23.3394 4.30713 24.9324 5.02013 26.0864 6.17413C27.2394 7.32713 27.9534 8.92112 27.9534 10.6811C27.9534 12.4421 27.2394 14.0341 26.0864 15.1881C24.9324 16.3421 23.3394 17.0551 21.5794 17.0551C19.8194 17.0551 18.2264 16.3421 17.0724 15.1881C15.9194 14.0351 15.2054 12.4411 15.2054 10.6811C15.2054 8.92112 15.9194 7.32713 17.0724 6.17413C18.2264 5.02013 19.8194 4.30713 21.5794 4.30713ZM25.4754 6.78513C24.4784 5.78813 23.1014 5.17212 21.5794 5.17212C20.0584 5.17212 18.6804 5.78813 17.6834 6.78513C16.6864 7.78213 16.0694 9.16012 16.0694 10.6811C16.0694 12.2021 16.6864 13.5801 17.6834 14.5771C18.6804 15.5741 20.0574 16.1911 21.5794 16.1911C23.1004 16.1911 24.4774 15.5741 25.4754 14.5771C26.4724 13.5811 27.0894 12.2031 27.0894 10.6811C27.0894 9.16012 26.4724 7.78213 25.4754 6.78513Z" fill="white"/>
</g>
</mask>
<g mask="url(#mask9_2001_621)">
<path d="M43.6949 7.27588C44.7365 7.30087 45.7984 7.365 46.4235 7.45654L46.4225 7.45752C46.7141 7.49988 46.8971 7.51485 47.067 7.53564C47.2183 7.55416 47.3966 7.57916 47.567 7.66455C47.7462 7.7544 47.8704 7.8866 47.9781 8.01611C48.0794 8.13779 48.2175 8.32394 48.3883 8.54248C48.7808 9.04449 49.3454 9.94827 49.8619 10.8462C50.3796 11.746 50.8731 12.682 51.1178 13.2593L51.1188 13.2603C51.232 13.5284 51.312 13.692 51.3815 13.8462C51.4429 13.9825 51.5156 14.1498 51.5289 14.3413C51.5429 14.544 51.4888 14.7188 51.4303 14.8735C51.3756 15.0182 51.2825 15.2282 51.1793 15.478L51.1783 15.479C50.9382 16.059 50.4351 16.9765 49.9127 17.8491C49.52 18.5051 49.1019 19.1596 48.7555 19.6519L48.4371 20.0845C48.2596 20.3105 48.1578 20.4567 48.0573 20.5913C47.9683 20.7104 47.8575 20.8543 47.6949 20.9585C47.5246 21.0676 47.345 21.105 47.1803 21.1294C47.0248 21.1524 46.7938 21.1732 46.5192 21.2056L46.5201 21.2065C45.8882 21.2815 44.8208 21.2949 43.7819 21.27C43.0006 21.2513 42.2078 21.2099 41.5963 21.1519L41.0524 21.0884C40.7615 21.0461 40.5793 21.0301 40.4098 21.0093C40.2589 20.9908 40.081 20.9658 39.9108 20.8804C39.7317 20.7904 39.6073 20.6582 39.4996 20.5288C39.3985 20.4073 39.2606 20.221 39.0895 20.0024H39.0885C38.6961 19.5005 38.1322 18.5973 37.6158 17.6997C37.2276 17.0248 36.8529 16.3288 36.5865 15.7798L36.359 15.2856C36.2454 15.0174 36.1651 14.8541 36.0953 14.6997C36.0338 14.5634 35.9613 14.3962 35.9479 14.2046C35.9337 14.0016 35.988 13.8264 36.0465 13.6714C36.1013 13.5264 36.1942 13.3169 36.2975 13.0669V13.0659C36.5376 12.486 37.0408 11.5686 37.5631 10.6958C38.0868 9.8208 38.6559 8.94774 39.0397 8.45947C39.2173 8.23325 39.3188 8.08738 39.4196 7.95264C39.5085 7.83363 39.6192 7.69052 39.7819 7.58643C39.9522 7.47746 40.132 7.43976 40.2965 7.41553C40.4515 7.39271 40.6827 7.37261 40.9567 7.34033V7.33936C41.5886 7.26435 42.656 7.25096 43.6949 7.27588Z" fill="#6C523B" stroke="#6C523B"/>
<path d="M32.7852 4.51367C34.0468 4.54415 35.3284 4.62256 36.0801 4.73145H36.0811C36.4351 4.78307 36.6604 4.80325 36.8623 4.82812C37.0455 4.85069 37.2444 4.87986 37.4326 4.97461C37.6296 5.07374 37.7686 5.22014 37.8965 5.37402C38.0178 5.52006 38.1815 5.74096 38.3916 6.00977C38.8625 6.61225 39.5439 7.70172 40.1699 8.79004C40.7971 9.88024 41.3932 11.0107 41.6875 11.7051V11.7061C41.8255 12.0322 41.925 12.2346 42.0078 12.418C42.0825 12.5834 42.1619 12.7702 42.1768 12.9814C42.1923 13.2041 42.134 13.3989 42.0645 13.583C41.9986 13.7572 41.8881 14.0053 41.7607 14.3135C41.4731 15.0085 40.8666 16.1154 40.2334 17.1729C39.5989 18.2324 38.9118 19.2854 38.4512 19.8721C38.235 20.1473 38.1089 20.3291 37.9893 20.4893C37.8813 20.6337 37.7571 20.7924 37.5781 20.9072C37.3913 21.027 37.192 21.0706 36.9961 21.0996C36.8095 21.1273 36.5356 21.1525 36.1982 21.1924C35.4407 21.2818 34.1535 21.298 32.8945 21.2676C31.6327 21.2371 30.3507 21.1587 29.5996 21.0498C29.2453 20.9982 29.0195 20.978 28.8174 20.9531C28.6342 20.9306 28.4353 20.9013 28.2471 20.8066C28.0501 20.7075 27.9111 20.5611 27.7832 20.4072C27.6619 20.2612 27.4982 20.0403 27.2881 19.7715C26.8172 19.1691 26.136 18.0795 25.5098 16.9912C24.8825 15.9011 24.286 14.7703 23.9922 14.0752C23.8542 13.7492 23.7548 13.5467 23.6719 13.3633C23.5972 13.1979 23.5178 13.0118 23.5029 12.8008C23.4873 12.5781 23.5457 12.3833 23.6152 12.1992C23.6811 12.0251 23.7916 11.7767 23.9189 11.4688C24.2066 10.7732 24.8132 9.66608 25.4463 8.6084C26.0805 7.54879 26.7669 6.49583 27.2275 5.90918C27.4438 5.63376 27.5696 5.45223 27.6895 5.29199C27.7975 5.14747 27.9223 4.98875 28.1016 4.87402C28.2882 4.75461 28.4869 4.71166 28.6826 4.68262C28.8691 4.65496 29.1432 4.62891 29.4805 4.58887H29.4814C30.2389 4.49941 31.5261 4.48326 32.7852 4.51367Z" fill="#6C523B" stroke="#6C523B"/>
<path d="M40.6223 10.3604C41.1493 10.4503 41.6837 10.5402 42.2189 10.6299C42.754 10.7197 43.2899 10.8094 43.8185 10.8995L43.8537 10.9053L43.8879 10.9171C45.3478 11.388 46.4534 12.8397 46.3117 14.4708L46.2941 14.629C46.0794 16.2071 44.7051 17.4614 43.1603 17.4854H43.1369L43.1135 17.4844C42.5384 17.4387 41.9636 17.3848 41.3928 17.3321C40.8207 17.2793 40.2516 17.2269 39.6838 17.1817L38.8127 17.1124L39.3146 16.3965C39.9751 15.4543 40.7242 14.4278 41.0685 13.2237L41.0715 13.211L41.0764 13.1973C41.0825 13.1798 41.0957 13.1103 41.0637 12.959C41.0329 12.8142 40.9697 12.6353 40.8752 12.4288C40.6862 12.016 40.4027 11.5551 40.1213 11.1299L39.4836 10.1671L40.6223 10.3604Z" fill="#6C523B" stroke="#6C523B"/>
<path fill-rule="evenodd" clip-rule="evenodd" d="M47.9948 8.85061C48.7328 9.79461 50.1928 12.3576 50.6578 13.4546C51.1218 14.5536 51.1658 14.2006 50.7168 15.2876C50.2668 16.3746 48.7708 18.8506 48.0438 19.7756C47.3168 20.7016 47.6488 20.5696 46.4608 20.7096C45.2728 20.8506 42.3148 20.7676 41.1248 20.5936C39.9358 20.4206 40.2218 20.6386 39.4828 19.6946C38.7448 18.7506 37.2848 16.1876 36.8198 15.0906C36.3548 13.9926 36.3108 14.3446 36.7598 13.2576C37.2098 12.1706 38.7058 9.69361 39.4328 8.76861C40.1598 7.84261 39.8278 7.97559 41.0158 7.83559C42.2038 7.69459 45.1628 7.77759 46.3508 7.95159C47.5418 8.12459 47.2568 7.90661 47.9948 8.85061Z" fill="#6C523B"/>
<path fill-rule="evenodd" clip-rule="evenodd" d="M37.9978 6.31761C38.8928 7.46261 40.6628 10.5696 41.2268 11.9006C41.7898 13.2316 41.8438 12.8036 41.2988 14.1226C40.7538 15.4396 38.9388 18.4416 38.0578 19.5636C37.1768 20.6856 37.5788 20.5256 36.1398 20.6956C34.7008 20.8656 31.1128 20.7636 29.6718 20.5546C28.2308 20.3446 28.5768 20.6086 27.6818 19.4636C26.7868 18.3186 25.0158 15.2126 24.4528 13.8806C23.8898 12.5506 23.8358 12.9776 24.3808 11.6596C24.9258 10.3416 26.7398 7.33964 27.6208 6.21764C28.5018 5.09564 28.0998 5.25662 29.5398 5.08562C30.9788 4.91562 34.5668 5.01761 36.0088 5.22661C37.4488 5.43661 37.1028 5.17261 37.9978 6.31761Z" fill="#6C523B"/>
<mask id="mask12_2001_621" style="mask-type:alpha" maskUnits="userSpaceOnUse" x="39" y="10" width="7" height="7">
<path fill-rule="evenodd" clip-rule="evenodd" d="M40.5378 10.8536C41.1078 11.7146 41.7428 12.8036 41.5488 13.3616C41.1768 14.6626 40.3708 15.7606 39.7238 16.6836C40.8668 16.7746 42.0098 16.8946 43.1528 16.9856C44.4388 16.9656 45.6158 15.9066 45.7988 14.5616C45.9928 13.1326 45.0368 11.8126 43.7348 11.3926C42.6788 11.2126 41.5938 11.0336 40.5378 10.8536Z" fill="#6C523B"/>
</mask>
<g mask="url(#mask12_2001_621)">
<path fill-rule="evenodd" clip-rule="evenodd" d="M40.5378 10.8536C41.1078 11.7146 41.7428 12.8036 41.5488 13.3616C41.1768 14.6626 40.3708 15.7606 39.7238 16.6836C40.8668 16.7746 42.0098 16.8946 43.1528 16.9856C44.4388 16.9656 45.6158 15.9066 45.7988 14.5616C45.9928 13.1326 45.0368 11.8126 43.7348 11.3926C42.6788 11.2126 41.5938 11.0336 40.5378 10.8536Z" fill="#6C523B"/>
</g>
<path d="M32.4118 7.62958C33.8109 7.62958 35.0778 8.19656 35.9948 9.11456C36.9118 10.0306 37.4788 11.2986 37.4788 12.6976C37.4788 14.0966 36.9118 15.3636 35.9948 16.2806C35.0778 17.1976 33.8109 17.7646 32.4118 17.7646C31.0118 17.7646 29.7458 17.1976 28.8288 16.2806C27.9118 15.3636 27.3448 14.0966 27.3448 12.6976C27.3448 11.2986 27.9128 10.0306 28.8288 9.11456C29.7448 8.19756 31.0118 7.62958 32.4118 7.62958ZM35.5089 9.60059C34.7159 8.80859 33.6208 8.31757 32.4118 8.31757C31.2018 8.31757 30.1068 8.80859 29.3148 9.60059C28.5218 10.3936 28.0318 11.4886 28.0318 12.6986C28.0318 13.9076 28.5218 15.0026 29.3148 15.7956C30.1078 16.5886 31.2028 17.0786 32.4118 17.0786C33.6208 17.0786 34.7159 16.5886 35.5089 15.7956C36.3009 15.0026 36.7918 13.9076 36.7918 12.6986C36.7918 11.4886 36.3009 10.3936 35.5089 9.60059Z" fill="#6C523B" stroke="#6C523B" stroke-width="0.216" stroke-miterlimit="22.9256"/>
<path d="M34.2348 14.9176C34.2348 15.1046 34.2168 15.2666 34.1838 15.4026C34.1468 15.5506 34.0888 15.6726 34.0108 15.7656C33.9288 15.8636 33.8118 15.9356 33.6618 15.9816C33.5278 16.0236 33.3658 16.0446 33.1758 16.0446H31.5398C31.3408 16.0446 31.1718 16.0246 31.0338 15.9866C30.8788 15.9436 30.7598 15.8746 30.6778 15.7806C30.6038 15.6976 30.5498 15.5796 30.5168 15.4266C30.4878 15.2886 30.4728 15.1186 30.4728 14.9166V14.2766V14.1046H30.6448H31.2418H31.4148V14.2766C31.4148 14.8706 31.4198 15.1736 31.4308 15.1876C31.4408 15.2016 31.4238 15.1696 31.4398 15.1726C31.4858 15.1826 31.5538 15.1866 31.6428 15.1866H33.0068C33.0788 15.1866 33.1338 15.1786 33.1748 15.1646C33.2018 15.1546 33.2208 15.1416 33.2318 15.1256L33.2348 15.1206C33.2458 15.1066 33.2548 15.0816 33.2618 15.0446C33.2718 14.9946 33.2768 14.9296 33.2768 14.8486V13.4166C33.2768 13.2836 33.2668 13.2086 33.2468 13.1916C33.2368 13.1836 33.2158 13.1756 33.1828 13.1696C33.1348 13.1596 33.0708 13.1546 32.9898 13.1546H31.7708H31.5988V12.9816V12.5816V12.5236L31.6338 12.4776L33.1028 10.5376H31.4488V11.6006V11.7736H31.2768H30.7228H30.5498V11.6006V9.85358V9.68158H30.7228H34.0638H34.2358V9.85358V10.3566V10.4136L34.2008 10.4596L32.8508 12.2836C32.9918 12.2866 33.1148 12.2906 33.2218 12.2966C33.4128 12.3076 33.5478 12.3246 33.6268 12.3496L33.6308 12.3506C33.8338 12.4176 33.9868 12.5396 34.0898 12.7116C34.1868 12.8746 34.2358 13.0816 34.2358 13.3316L34.2348 14.9176Z" fill="#6C523B"/>
</g>
<path d="M44.6949 7.27588C45.7365 7.30087 46.7984 7.365 47.4235 7.45654L47.4225 7.45752C47.7141 7.49988 47.8971 7.51485 48.067 7.53564C48.2183 7.55416 48.3966 7.57916 48.567 7.66455C48.7462 7.7544 48.8704 7.8866 48.9781 8.01611C49.0794 8.13779 49.2175 8.32394 49.3883 8.54248C49.7808 9.04449 50.3454 9.94827 50.8619 10.8462C51.3796 11.746 51.8731 12.682 52.1178 13.2593L52.1188 13.2603C52.232 13.5284 52.312 13.692 52.3815 13.8462C52.4429 13.9825 52.5156 14.1498 52.5289 14.3413C52.5429 14.544 52.4888 14.7188 52.4303 14.8735C52.3756 15.0182 52.2825 15.2282 52.1793 15.478L52.1783 15.479C51.9382 16.059 51.4351 16.9765 50.9127 17.8491C50.52 18.5051 50.1019 19.1596 49.7555 19.6519L49.4371 20.0845C49.2596 20.3105 49.1578 20.4567 49.0573 20.5913C48.9683 20.7104 48.8575 20.8543 48.6949 20.9585C48.5246 21.0676 48.345 21.105 48.1803 21.1294C48.0248 21.1524 47.7938 21.1732 47.5192 21.2056L47.5201 21.2065C46.8882 21.2815 45.8208 21.2949 44.7819 21.27C44.0006 21.2513 43.2078 21.2099 42.5963 21.1519L42.0524 21.0884C41.7615 21.0461 41.5793 21.0301 41.4098 21.0093C41.2589 20.9908 41.081 20.9658 40.9108 20.8804C40.7317 20.7904 40.6073 20.6582 40.4996 20.5288C40.3985 20.4073 40.2606 20.221 40.0895 20.0024H40.0885C39.6961 19.5005 39.1322 18.5973 38.6158 17.6997C38.2276 17.0248 37.8529 16.3288 37.5865 15.7798L37.359 15.2856C37.2454 15.0174 37.1651 14.8541 37.0953 14.6997C37.0338 14.5634 36.9613 14.3962 36.9479 14.2046C36.9337 14.0016 36.988 13.8264 37.0465 13.6714C37.1013 13.5264 37.1942 13.3169 37.2975 13.0669V13.0659C37.5376 12.486 38.0408 11.5686 38.5631 10.6958C39.0868 9.8208 39.6559 8.94774 40.0397 8.45947C40.2173 8.23325 40.3188 8.08738 40.4196 7.95264C40.5085 7.83363 40.6192 7.69052 40.7819 7.58643C40.9522 7.47746 41.132 7.43976 41.2965 7.41553C41.4515 7.39271 41.6827 7.37261 41.9567 7.34033V7.33936C42.5886 7.26435 43.656 7.25096 44.6949 7.27588Z" fill="#FF8E29" stroke="black"/>
<path d="M33.7852 4.51367C35.0468 4.54415 36.3284 4.62256 37.0801 4.73145H37.0811C37.4351 4.78307 37.6604 4.80325 37.8623 4.82812C38.0455 4.85069 38.2444 4.87986 38.4326 4.97461C38.6296 5.07374 38.7686 5.22014 38.8965 5.37402C39.0178 5.52006 39.1815 5.74096 39.3916 6.00977C39.8625 6.61225 40.5439 7.70172 41.1699 8.79004C41.7971 9.88024 42.3932 11.0107 42.6875 11.7051V11.7061C42.8255 12.0322 42.925 12.2346 43.0078 12.418C43.0825 12.5834 43.1619 12.7702 43.1768 12.9814C43.1923 13.2041 43.134 13.3989 43.0645 13.583C42.9986 13.7572 42.8881 14.0053 42.7607 14.3135C42.4731 15.0085 41.8666 16.1154 41.2334 17.1729C40.5989 18.2324 39.9118 19.2854 39.4512 19.8721C39.235 20.1473 39.1089 20.3291 38.9893 20.4893C38.8813 20.6337 38.7571 20.7924 38.5781 20.9072C38.3913 21.027 38.192 21.0706 37.9961 21.0996C37.8095 21.1273 37.5356 21.1525 37.1982 21.1924C36.4407 21.2818 35.1535 21.298 33.8945 21.2676C32.6327 21.2371 31.3507 21.1587 30.5996 21.0498C30.2453 20.9982 30.0195 20.978 29.8174 20.9531C29.6342 20.9306 29.4353 20.9013 29.2471 20.8066C29.0501 20.7075 28.9111 20.5611 28.7832 20.4072C28.6619 20.2612 28.4982 20.0403 28.2881 19.7715C27.8172 19.1691 27.136 18.0795 26.5098 16.9912C25.8825 15.9011 25.286 14.7703 24.9922 14.0752C24.8542 13.7492 24.7548 13.5467 24.6719 13.3633C24.5972 13.1979 24.5178 13.0118 24.5029 12.8008C24.4873 12.5781 24.5457 12.3833 24.6152 12.1992C24.6811 12.0251 24.7916 11.7767 24.9189 11.4688C25.2066 10.7732 25.8132 9.66608 26.4463 8.6084C27.0805 7.54879 27.7669 6.49583 28.2275 5.90918C28.4438 5.63376 28.5696 5.45223 28.6895 5.29199C28.7975 5.14747 28.9223 4.98875 29.1016 4.87402C29.2882 4.75461 29.4869 4.71166 29.6826 4.68262C29.8691 4.65496 30.1432 4.62891 30.4805 4.58887H30.4814C31.2389 4.49941 32.5261 4.48326 33.7852 4.51367Z" fill="#FF8E29" stroke="black"/>
<path d="M41.6223 10.3604C42.1493 10.4503 42.6837 10.5402 43.2189 10.6299C43.754 10.7197 44.2899 10.8094 44.8185 10.8995L44.8537 10.9053L44.8879 10.9171C46.3478 11.388 47.4534 12.8397 47.3117 14.4708L47.2941 14.629C47.0794 16.2071 45.7051 17.4614 44.1603 17.4854H44.1369L44.1135 17.4844C43.5384 17.4387 42.9636 17.3848 42.3928 17.3321C41.8207 17.2793 41.2516 17.2269 40.6838 17.1817L39.8127 17.1124L40.3146 16.3965C40.9751 15.4543 41.7242 14.4278 42.0685 13.2237L42.0715 13.211L42.0764 13.1973C42.0825 13.1798 42.0957 13.1103 42.0637 12.959C42.0329 12.8142 41.9697 12.6353 41.8752 12.4288C41.6862 12.016 41.4027 11.5551 41.1213 11.1299L40.4836 10.1671L41.6223 10.3604Z" fill="white" stroke="black"/>
<path fill-rule="evenodd" clip-rule="evenodd" d="M48.9948 8.85061C49.7328 9.79461 51.1928 12.3576 51.6578 13.4546C52.1218 14.5536 52.1658 14.2006 51.7168 15.2876C51.2668 16.3746 49.7708 18.8506 49.0438 19.7756C48.3168 20.7016 48.6488 20.5696 47.4608 20.7096C46.2728 20.8506 43.3148 20.7676 42.1248 20.5936C40.9358 20.4206 41.2218 20.6386 40.4828 19.6946C39.7448 18.7506 38.2848 16.1876 37.8198 15.0906C37.3548 13.9926 37.3108 14.3446 37.7598 13.2576C38.2098 12.1706 39.7058 9.69361 40.4328 8.76861C41.1598 7.84261 40.8278 7.97559 42.0158 7.83559C43.2038 7.69459 46.1628 7.77759 47.3508 7.95159C48.5418 8.12459 48.2568 7.90661 48.9948 8.85061Z" fill="#FF8E29"/>
<g style="mix-blend-mode:multiply">
<mask id="mask13_2001_621" style="mask-type:alpha" maskUnits="userSpaceOnUse" x="37" y="7" width="16" height="14">
<path fill-rule="evenodd" clip-rule="evenodd" d="M48.9948 8.85061C49.7328 9.79461 51.1928 12.3576 51.6578 13.4546C52.1218 14.5536 52.1658 14.2006 51.7168 15.2876C51.2668 16.3746 49.7708 18.8506 49.0438 19.7756C48.3168 20.7016 48.6488 20.5696 47.4608 20.7096C46.2728 20.8506 43.3148 20.7676 42.1248 20.5936C40.9358 20.4206 41.2218 20.6386 40.4828 19.6946C39.7448 18.7506 38.2848 16.1876 37.8198 15.0906C37.3548 13.9926 37.3108 14.3446 37.7598 13.2576C38.2098 12.1706 39.7058 9.69361 40.4328 8.76861C41.1598 7.84261 40.8278 7.97559 42.0158 7.83559C43.2038 7.69459 46.1628 7.77759 47.3508 7.95159C48.5418 8.12459 48.2568 7.90661 48.9948 8.85061Z" fill="#FF8E29"/>
</mask>
<g mask="url(#mask13_2001_621)">
<path opacity="0.25" d="M49 13.75C49 17.4779 46.0899 20.5 42.5 20.5C38.9101 20.5 36 17.4779 36 13.75C36 10.0221 38.9101 7 42.5 7C46.0899 7 49 10.0221 49 13.75Z" fill="#6C523B"/>
</g>
</g>
<path fill-rule="evenodd" clip-rule="evenodd" d="M38.9978 6.31761C39.8928 7.46261 41.6628 10.5696 42.2268 11.9006C42.7898 13.2316 42.8438 12.8036 42.2988 14.1226C41.7538 15.4396 39.9388 18.4416 39.0578 19.5636C38.1768 20.6856 38.5788 20.5256 37.1398 20.6956C35.7008 20.8656 32.1128 20.7636 30.6718 20.5546C29.2308 20.3446 29.5768 20.6086 28.6818 19.4636C27.7868 18.3186 26.0158 15.2126 25.4528 13.8806C24.8898 12.5506 24.8358 12.9776 25.3808 11.6596C25.9258 10.3416 27.7398 7.33964 28.6208 6.21764C29.5018 5.09564 29.0998 5.25662 30.5398 5.08562C31.9788 4.91562 35.5668 5.01761 37.0088 5.22661C38.4488 5.43661 38.1028 5.17261 38.9978 6.31761Z" fill="#FF8E29"/>
<mask id="mask14_2001_621" style="mask-type:alpha" maskUnits="userSpaceOnUse" x="40" y="10" width="7" height="7">
<path fill-rule="evenodd" clip-rule="evenodd" d="M41.5378 10.8536C42.1078 11.7146 42.7428 12.8036 42.5488 13.3616C42.1768 14.6626 41.3708 15.7606 40.7238 16.6836C41.8668 16.7746 43.0098 16.8946 44.1528 16.9856C45.4388 16.9656 46.6158 15.9066 46.7988 14.5616C46.9928 13.1326 46.0368 11.8126 44.7348 11.3926C43.6788 11.2126 42.5938 11.0336 41.5378 10.8536Z" fill="white"/>
</mask>
<g mask="url(#mask14_2001_621)">
<path fill-rule="evenodd" clip-rule="evenodd" d="M41.5378 10.8536C42.1078 11.7146 42.7428 12.8036 42.5488 13.3616C42.1768 14.6626 41.3708 15.7606 40.7238 16.6836C41.8668 16.7746 43.0098 16.8946 44.1528 16.9856C45.4388 16.9656 46.6158 15.9066 46.7988 14.5616C46.9928 13.1326 46.0368 11.8126 44.7348 11.3926C43.6788 11.2126 42.5938 11.0336 41.5378 10.8536Z" fill="white"/>
<g opacity="0.34" style="mix-blend-mode:multiply">
<ellipse cx="41" cy="14" rx="3" ry="4" fill="#454545" fill-opacity="0.61"/>
</g>
</g>
<path d="M33.4118 7.62958C34.8109 7.62958 36.0778 8.19656 36.9948 9.11456C37.9118 10.0306 38.4788 11.2986 38.4788 12.6976C38.4788 14.0966 37.9118 15.3636 36.9948 16.2806C36.0778 17.1976 34.8109 17.7646 33.4118 17.7646C32.0118 17.7646 30.7458 17.1976 29.8288 16.2806C28.9118 15.3636 28.3448 14.0966 28.3448 12.6976C28.3448 11.2986 28.9128 10.0306 29.8288 9.11456C30.7448 8.19756 32.0118 7.62958 33.4118 7.62958ZM36.5089 9.60059C35.7159 8.80859 34.6208 8.31757 33.4118 8.31757C32.2018 8.31757 31.1068 8.80859 30.3148 9.60059C29.5218 10.3936 29.0318 11.4886 29.0318 12.6986C29.0318 13.9076 29.5218 15.0026 30.3148 15.7956C31.1078 16.5886 32.2028 17.0786 33.4118 17.0786C34.6208 17.0786 35.7159 16.5886 36.5089 15.7956C37.3009 15.0026 37.7918 13.9076 37.7918 12.6986C37.7918 11.4886 37.3009 10.3936 36.5089 9.60059Z" fill="white" stroke="white" stroke-width="0.216" stroke-miterlimit="22.9256"/>
<path d="M35.2348 14.9176C35.2348 15.1046 35.2168 15.2666 35.1838 15.4026C35.1468 15.5506 35.0888 15.6726 35.0108 15.7656C34.9288 15.8636 34.8118 15.9356 34.6618 15.9816C34.5278 16.0236 34.3658 16.0446 34.1758 16.0446H32.5398C32.3408 16.0446 32.1718 16.0246 32.0338 15.9866C31.8788 15.9436 31.7598 15.8746 31.6778 15.7806C31.6038 15.6976 31.5498 15.5796 31.5168 15.4266C31.4878 15.2886 31.4728 15.1186 31.4728 14.9166V14.2766V14.1046H31.6448H32.2418H32.4148V14.2766C32.4148 14.8706 32.4198 15.1736 32.4308 15.1876C32.4408 15.2016 32.4238 15.1696 32.4398 15.1726C32.4858 15.1826 32.5538 15.1866 32.6428 15.1866H34.0068C34.0788 15.1866 34.1338 15.1786 34.1748 15.1646C34.2018 15.1546 34.2208 15.1416 34.2318 15.1256L34.2348 15.1206C34.2458 15.1066 34.2548 15.0816 34.2618 15.0446C34.2718 14.9946 34.2768 14.9296 34.2768 14.8486V13.4166C34.2768 13.2836 34.2668 13.2086 34.2468 13.1916C34.2368 13.1836 34.2158 13.1756 34.1828 13.1696C34.1348 13.1596 34.0708 13.1546 33.9898 13.1546H32.7708H32.5988V12.9816V12.5816V12.5236L32.6338 12.4776L34.1028 10.5376H32.4488V11.6006V11.7736H32.2768H31.7228H31.5498V11.6006V9.85358V9.68158H31.7228H35.0638H35.2358V9.85358V10.3566V10.4136L35.2008 10.4596L33.8508 12.2836C33.9918 12.2866 34.1148 12.2906 34.2218 12.2966C34.4128 12.3076 34.5478 12.3246 34.6268 12.3496L34.6308 12.3506C34.8338 12.4176 34.9868 12.5396 35.0898 12.7116C35.1868 12.8746 35.2358 13.0816 35.2358 13.3316L35.2348 14.9176Z" fill="white"/>
</svg>
